<svg xmlns="http://www.w3.org/2000/svg" width="36" height="36" viewBox="1177 6740.95 36 36"><g data-name="Group 150645"><path d="M1177 6758.9a18 18 0 1 1 0 .1z" fill="#cb2027" fill-rule="evenodd" data-name="Ellipse 10973"/><g data-name="Razor_x5F_simple"><g data-name="Group 150569"><path d="M1189.911 6759.248c.578 1.156 1.177 5.017 1.115 6.07-.062.887-.227 1.899-.764 2.415-.516.516-1.28.702-1.817.578.475.434 2.684 2.271 6.937 2.395 4.253.124 7.205-2.395 7.205-2.395s-1.156.165-1.9-.289c-.66-.392-.97-.784-1.114-2.106-.144-1.32 1.528-5.202 1.528-5.202-.227.392-1.198 1.61-2.023 2.209-.847.62-1.693 1.094-1.92 1.177.495.082.929 0 1.032.825.124.97-.103 2.292-1.012 3.097-1.115.97-2.518.165-3.117-.929-.516-.95-1.115-2.725-1.218-4.851-.103-1.9.743-3.015.743-3.015s-.846-1.094-.743-2.993c.124-2.127.702-3.902 1.218-4.852.599-1.094 2.002-1.9 3.117-.929.909.785 1.136 2.106 1.012 3.097-.103.826-.537.743-1.032.826.227.103 1.073.557 1.92 1.177.825.598 1.796 1.837 2.023 2.209 0 0-1.672-3.882-1.528-5.203.145-1.321.475-1.734 1.115-2.106.764-.433 1.9-.289 1.9-.289s-2.953-2.519-7.206-2.395c-4.253.124-6.462 1.941-6.937 2.395.537-.124 1.301.062 1.817.578s.702 1.528.764 2.416c.062 1.073-.537 4.934-1.115 6.09Z" fill="#fff" fill-rule="evenodd" data-name="Path 255899"/><path d="M1201.844 6759.186c.413.805.826 3.469.764 4.191-.041.62-.165 1.3-.516 1.672-.351.351-.888.475-1.26.393.33.31 1.858 1.569 4.81 1.651 2.953.083 4.976-1.651 4.976-1.651s-.805.103-1.321-.186c-.454-.269-.681-.537-.785-1.466-.103-.908 1.053-3.592 1.053-3.592-.165.268-.825 1.115-1.404 1.527-.578.434-1.176.764-1.32.826.35.062.64 0 .722.578.082.682-.062 1.59-.702 2.127-.764.66-1.734.124-2.147-.64-.351-.66-.764-1.879-.847-3.345-.062-1.3.516-2.085.516-2.085s-.578-.764-.516-2.064c.083-1.466.496-2.705.847-3.345.413-.764 1.383-1.3 2.147-.64.64.557.784 1.466.702 2.127-.062.578-.372.516-.723.578.165.062.743.392 1.321.825.579.413 1.24 1.26 1.404 1.528 0 0-1.156-2.684-1.053-3.592.104-.93.33-1.198.785-1.466.516-.31 1.321-.186 1.321-.186s-2.044-1.734-4.975-1.651c-2.953.082-4.48 1.342-4.81 1.651.371-.082.908.042 1.259.393.35.35.475 1.052.516 1.672.041.702-.351 3.365-.764 4.17Z" fill="#fff" fill-rule="evenodd" data-name="Path 255900"/><path d="M1188.012 6765.008c-.454-.95-.372-2.519-.269-3.2.186-1.115 1.198-2.519 1.26-2.601 0 0-1.074-1.466-1.239-2.602-.103-.68-.186-2.25.268-3.2.413-.846 1.053-1.011 1.053-1.011s-1.693-1.074-3.447-1.3a8.261 8.261 0 0 0-1.177-.104h-.02c-.372 0-.703.041-1.136.103-1.755.227-3.448 1.3-3.448 1.3s.64.166 1.053 1.012c.454.95.371 2.52.268 3.2-.186 1.136-1.238 2.581-1.238 2.581l-.021.02.02.021s1.074 1.425 1.26 2.56c.103.682.186 2.25-.269 3.2-.412.847-1.052 1.012-1.052 1.012s1.692 1.073 3.447 1.3c.434.063.764.104 1.136.104h.041c.372 0 .723-.041 1.177-.103 1.755-.228 3.448-1.301 3.448-1.301s-.702-.145-1.115-.991Zm-2.168-1.321c-.206.681-.537 1.156-1.404 1.176-.867-.02-1.197-.495-1.404-1.176-.495-1.61-.454-3.386-.124-4.439l.021-.041-.02-.042c-.33-1.052-.372-2.828.123-4.438.207-.682.537-1.156 1.404-1.177.867.02 1.198.495 1.404 1.177.496 1.61.454 3.386.124 4.438l-.02.042.02.041c.33 1.053.392 2.828-.124 4.439Z" fill="#fff" fill-rule="evenodd" data-name="Path 255901"/></g></g></g></svg>