<svg width="125" height="23" viewBox="0 0 125 23" fill="none" xmlns="http://www.w3.org/2000/svg">
<rect x="0.908023" y="2.49347" width="123.148" height="17.8241" fill="#B8B8B8" fill-opacity="0.58"/>
<rect x="0.908023" y="2.49347" width="123.148" height="17.8241" stroke="#BFBFBF" stroke-width="0.810187"/>
<path d="M14.2168 6.8522C15.7465 6.8522 16.8742 7.81146 16.8742 9.22442C16.8742 10.1578 16.252 11.0133 15.3057 11.3374C16.4465 11.6096 17.1205 12.5559 17.1205 13.6967C17.1205 15.2911 15.8631 16.3411 14.1909 16.3411C12.7779 16.3411 11.7798 15.7318 11.3002 14.4874L12.2854 14.1892C12.6094 15.0837 13.2187 15.4855 14.2687 15.4855C15.3187 15.4855 16.1872 14.7078 16.1872 13.6707C16.1872 12.53 15.4354 11.8041 13.6724 11.8041H13.452V10.9485H13.815C15.3317 10.9485 15.9409 10.2615 15.9409 9.26331C15.9409 8.26516 15.3187 7.70775 14.2428 7.70775C13.4779 7.70775 12.8687 8.05775 12.4928 8.71887L11.6761 8.30405C12.2335 7.3059 13.0891 6.8522 14.2168 6.8522ZM24.1551 7.00775V7.86331L20.4606 16.1855H19.4106L23.1829 7.86331H18.7106V7.00775H24.1551ZM31.2415 7.00775V7.86331H27.4822L27.4304 10.6244C27.8322 10.4689 28.247 10.4041 28.6619 10.4041C30.373 10.4041 31.5656 11.6744 31.5656 13.3467C31.5656 15.1096 30.2433 16.3411 28.4804 16.3411C27.3267 16.3411 26.3156 15.7448 25.8359 14.7078L26.7563 14.3059C27.1193 15.0189 27.7415 15.4855 28.5582 15.4855C29.7119 15.4855 30.6322 14.5522 30.6322 13.4374C30.6322 12.1541 29.6859 11.2596 28.3767 11.2596C27.7156 11.2596 27.0544 11.4541 26.4711 11.7652L26.5619 7.00775H31.2415ZM36.0205 6.8522C38.0557 6.8522 39.1316 8.52442 39.1316 11.5966C39.1316 14.6689 38.0816 16.3411 36.0205 16.3411C33.9853 16.3411 32.9094 14.6689 32.9094 11.5966C32.9094 8.52442 33.9853 6.8522 36.0205 6.8522ZM33.8427 11.5966C33.8427 14.28 34.5816 15.4855 36.0205 15.4855C37.4334 15.4855 38.1983 14.293 38.1983 11.5966C38.1983 8.93924 37.4594 7.70775 36.0075 7.70775C34.6075 7.70775 33.8427 8.90035 33.8427 11.5966ZM44.4721 16.1855V7.00775H50.1629V7.86331H45.4055V10.9874H49.8518V11.8429H45.4055V15.33H50.3185V16.1855H44.4721ZM51.8451 11.4022L51.7803 10.1189H52.6618C52.7007 10.4429 52.7007 10.6633 52.7007 11.0911H52.7266C53.1026 10.43 53.9452 9.96331 54.7618 9.96331C56.2655 9.96331 57.0433 10.8189 57.0433 12.2837V16.1855H56.1877V12.7633C56.1877 11.4022 55.7081 10.7411 54.5933 10.7411C53.7507 10.7411 52.7007 11.3374 52.7007 13.1263V16.1855H51.8451V11.4022ZM59.5797 10.8966H58.2964V10.1189H59.5797V8.40775H60.4353V10.1189H62.1853V10.8966H60.4353V14.5263C60.4353 15.1874 60.6427 15.5633 61.3167 15.5633C61.6149 15.5633 61.939 15.4726 62.1982 15.33L62.2371 16.1207C61.913 16.2633 61.4982 16.3411 61.0834 16.3411C60.1371 16.3411 59.5797 15.7578 59.5797 14.7726V10.8966ZM66.2042 9.96331C66.4505 9.96331 66.6449 9.98924 66.8394 10.0411L66.6709 10.8837C66.5542 10.8318 66.3986 10.8189 66.1912 10.8189C65.0246 10.8189 64.2986 11.7522 64.2986 12.8152V16.1855H63.4431V11.9726C63.4431 11.0911 63.4042 10.8966 63.3912 10.1189H64.2338V11.2466H64.2597C64.5838 10.43 65.2838 9.96331 66.2042 9.96331ZM68.2787 7.16331C68.6027 7.16331 68.9009 7.46146 68.9009 7.78553C68.9009 8.13553 68.6027 8.40775 68.2787 8.40775C67.9676 8.40775 67.6564 8.13553 67.6564 7.78553C67.6564 7.43553 67.9676 7.16331 68.2787 7.16331ZM68.7064 10.1189V16.1855H67.8509V10.1189H68.7064ZM73.5058 9.96331C75.1521 9.96331 76.4225 11.0781 76.4225 13.1263V13.3855H71.3669C71.4965 14.6559 72.4428 15.5633 73.5965 15.5633C74.3743 15.5633 75.1262 15.1744 75.541 14.5133L76.2021 15.0578C75.4891 15.9522 74.5947 16.3411 73.5965 16.3411C71.7688 16.3411 70.4595 14.9541 70.4595 13.1522C70.4595 11.3374 71.8076 9.96331 73.5058 9.96331ZM75.4891 12.6855C75.4891 11.5059 74.7113 10.7411 73.5188 10.7411C72.4817 10.7411 71.4187 11.6096 71.3928 12.6855H75.4891ZM79.9311 9.96331C80.8774 9.96331 81.6033 10.3392 81.9533 11.0522L81.1885 11.5578C80.9292 11.0522 80.5014 10.7411 79.8792 10.7411C79.1533 10.7411 78.6218 11.0911 78.6218 11.6485C78.6218 12.1541 78.92 12.4263 80.0218 12.6596C80.6829 12.8022 81.1366 12.9189 81.4607 13.1522C81.9922 13.5411 82.1607 14.0467 82.1607 14.4744C82.1607 15.6281 81.2144 16.3411 79.8014 16.3411C78.7644 16.3411 77.9866 15.9393 77.4681 15.1615L78.207 14.6559C78.57 15.2133 79.0755 15.5633 79.8014 15.5633C80.6181 15.5633 81.2144 15.1874 81.2274 14.5522C81.2403 14.0207 80.8774 13.7226 79.594 13.4633C78.2848 13.2041 77.6885 12.6467 77.6885 11.7911C77.6885 10.6892 78.5959 9.96331 79.9311 9.96331Z" fill="black"/>
<rect width="29.1667" height="18.6343" transform="translate(95.2948 2.08838)" fill="#CD2027"/>
<path d="M103.572 6.76903C104.946 6.76903 106.173 7.47389 106.173 9.07806C106.173 10.184 105.493 10.9739 104.545 11.9218L101.725 14.717H106.246V15.519H100.777V14.5104L104.204 11.0225C105.031 10.184 105.298 9.66139 105.298 9.07806C105.298 8.1909 104.605 7.57111 103.633 7.57111C102.795 7.57111 102.126 8.08153 101.92 8.92007L100.996 8.82285C101.239 7.55896 102.248 6.76903 103.572 6.76903ZM112.598 6.91486V7.71694H109.074L109.025 10.3055C109.402 10.1597 109.791 10.0989 110.18 10.0989C111.784 10.0989 112.902 11.2899 112.902 12.8576C112.902 14.5104 111.662 15.6649 110.009 15.6649C108.928 15.6649 107.98 15.1058 107.53 14.1336L108.393 13.7569C108.733 14.4253 109.317 14.8628 110.082 14.8628C111.164 14.8628 112.027 13.9878 112.027 12.9426C112.027 11.7395 111.14 10.901 109.912 10.901C109.292 10.901 108.673 11.0833 108.126 11.3749L108.211 6.91486H112.598ZM114.721 15.519H113.7L116.045 12.4808L113.979 9.83153H115.073L116.653 11.9583L118.16 9.83153H119.156L117.175 12.4808L119.557 15.519H118.464L116.556 13.0277L114.721 15.519Z" fill="white"/>
</svg>
