<svg xmlns="http://www.w3.org/2000/svg" width="72" height="80" viewBox="600 8408 72 80"><g data-name="1f525"><g data-name="Path 256010"><path d="M672 8450.178c0-4.587-.777-8.986-2.202-13.055-.974 11.99-7.058 18.148-13.416 15.28-5.954-2.688-1.942-13.164-1.645-18.163.5-8.475-.025-18.175-14.677-26.24 6.088 12.237.705 19.839-4.94 20.301-6.265.514-12.002-5.655-9.884-15.667-6.857 5.309-7.056 14.244-4.94 20.024 2.206 6.024-.09 11.03-5.47 11.587-6.014.622-9.356-6.766-6.275-18.54-5.332 6.597-8.551 15.14-8.551 24.473 0 20.889 16.117 37.822 36 37.822s36-16.933 36-37.822Z" fill="#f4900c" fill-rule="evenodd"/><path d="M672 8450.178c0-4.587-.777-8.986-2.202-13.055-.974 11.99-7.058 18.148-13.416 15.28-5.954-2.688-1.942-13.164-1.645-18.163.5-8.475-.025-18.175-14.677-26.24 6.088 12.237.705 19.839-4.94 20.301-6.265.514-12.002-5.655-9.884-15.667-6.857 5.309-7.056 14.244-4.94 20.024 2.206 6.024-.09 11.03-5.47 11.587-6.014.622-9.356-6.766-6.275-18.54-5.332 6.597-8.551 15.14-8.551 24.473 0 20.889 16.117 37.822 36 37.822s36-16.933 36-37.822Z" stroke-linejoin="round" stroke-linecap="round" stroke-width="2" stroke="#fff" fill="transparent"/></g><path d="M657.484 8460.32c.306 6.906-5.294 9.614-8.307 8.306-4.353-1.888-3.185-5.13-4.306-11.848-1.12-6.718-5.425-11.383-11.798-13.437 4.65 14.182-2.577 19.409-6.366 20.343-3.87.954-7.757-.002-8.202-8.973-4.514 4.868-7.308 11.604-7.308 19.048 0 .824-.015 1.758.052 2.564 6.31 6.753 15.123 10.872 24.751 10.872 9.628 0 18.426-4.049 24.752-10.872.066-.806.051-1.74.051-2.564 0-4.898-1.207-9.486-3.32-13.439Z" fill="#ffcc4d" fill-rule="evenodd" data-name="Path 256011"/></g></svg>