<svg width="32" height="33" viewBox="0 0 32 33" fill="none" xmlns="http://www.w3.org/2000/svg">
<circle cx="16" cy="16.7329" r="15.5" stroke="white"/>
<path fill-rule="evenodd" clip-rule="evenodd" d="M12.07 11.0479C12.4512 10.8996 12.8877 10.7983 13.5265 10.7692C14.1666 10.7397 14.3712 10.7329 16.0007 10.7329C17.6302 10.7329 17.8347 10.7402 18.4745 10.7692C19.1128 10.7979 19.549 10.8996 19.9309 11.0479C20.325 11.2011 20.6599 11.4061 20.9933 11.74C21.3268 12.0739 21.5319 12.4084 21.6855 12.8029C21.8338 13.184 21.9351 13.6204 21.9641 14.2592C21.9932 14.899 22 15.1035 22 16.7329C22 18.3623 21.9932 18.5664 21.9641 19.2066C21.9355 19.8453 21.8338 20.2816 21.6855 20.663C21.5319 21.0574 21.3273 21.3924 20.9933 21.7258C20.6594 22.0592 20.325 22.2643 19.9305 22.4179C19.549 22.5662 19.1128 22.6675 18.474 22.6966C17.8343 22.7261 17.6297 22.7329 16.0003 22.7329C14.3708 22.7329 14.1666 22.7256 13.5265 22.6966C12.8877 22.6675 12.4519 22.5662 12.07 22.4179C11.6753 22.2643 11.341 22.0591 11.0071 21.7258C10.6732 21.3926 10.4682 21.0574 10.315 20.663C10.1667 20.2816 10.0654 19.8454 10.0363 19.2066C10.0068 18.5668 10 18.3623 10 16.7329C10 15.1035 10.0068 14.899 10.0363 14.2592C10.0654 13.6205 10.1667 13.1843 10.315 12.8029C10.4682 12.4081 10.6732 12.0734 11.0071 11.74C11.3411 11.4066 11.6753 11.2011 12.07 11.0479ZM15.9997 14.7329C14.8953 14.7329 14 15.6284 14 16.7329C14 17.8374 14.8953 18.7329 15.9997 18.7329C17.1043 18.7329 18 17.8372 18 16.7329C18 15.6286 17.1043 14.7329 15.9997 14.7329ZM12.6667 16.7329C12.6667 14.8923 14.1586 13.3996 15.9997 13.3996C17.8405 13.3996 19.3333 14.8921 19.3333 16.7329C19.3333 18.5738 17.8405 20.0662 15.9997 20.0662C14.1586 20.0662 12.6667 18.5736 12.6667 16.7329ZM20 13.3996C20.3682 13.3996 20.6667 13.1011 20.6667 12.7329C20.6667 12.3647 20.3682 12.0662 20 12.0662C19.6318 12.0662 19.3333 12.3647 19.3333 12.7329C19.3333 13.1011 19.6318 13.3996 20 13.3996Z" fill="white"/>
</svg>
