<svg xmlns="http://www.w3.org/2000/svg" width="1599.999" height="580.477" viewBox="160 7975.523 1599.999 580.477"><g data-name="Group 150793"><path d="m574.072 8343.959 17.066 5.333-10.88-14.294c-18.773-24.746-84.904-42.665-156.584-44.37 49.707-21.122 84.692-5.549 118.612 9.385 40.745 18.133 79.784 34.132 130.983-16.64 17.493-17.493 26.026-28.374 26.026-28.374l-31.359 19.415c-40.532 25.812-80.851 8.959-120.105-7.467-46.078-19.414-93.863-39.252-135.89 17.066l-4.906 6.4c-7.253 0-14.506.427-21.546.64-59.093 3.413-164.264 21.76-213.33 105.384L160 8418.411l19.626-15.147c124.157-97.918 322.98-81.492 394.446-59.305Zm-78.293-87.678c40.747 7.68 81.28 42.45 113.706 43.518 34.986 1.28 65.705-24.96 65.705-24.96s-30.72 33.707-71.68 30.08c-31.146-2.773-73.17-37.12-110.93-41.174-37.332-3.837-57.813 5.122-76.159 22.4 0 .214 30.08-39.252 79.358-29.864Zm-297.807 118.824c100.692-64.213 206.077-74.879 324.9-52.266l7.254 1.707c-47.786-7.895-143.357-12.374-222.929 10.026-70.399 19.84-130.344 65.492-131.197 66.132 3.413-4.693 14.293-18.347 21.972-25.6Z" fill="#fff" fill-rule="evenodd" data-name="Path 254224"/><path d="m418.431 8424.596-9.173-.854c-18.986 0-33.067 8.96-33.067 20.693 0 11.734 14.294 20.693 33.067 20.693l9.386-.853c14.294-2.346 23.68-10.027 23.68-19.627-.214-10.026-9.6-17.706-23.893-20.052Zm-23.04 30.933c.64.425 1.28.64 2.133.852 1.707 1.707 4.694 2.987 8.32 3.415-4.692-.429-8.746-2.135-10.452-4.267Zm19.84 1.067a40.009 40.009 0 0 1-7.253.638c-2.134 0-4.267-.213-6.187-.425 1.28.212 2.347.212 3.627.212 2.56 0 4.907-.425 7.253-.64 9.6-1.706 16.64-6.613 16.64-12.372 0-1.921-.854-3.628-2.135-5.12 1.495.853 2.775 1.492 3.841 2.561.427 1.066.64 1.918.64 2.985.213 5.76-6.827 10.666-16.425 12.16Z" fill="#fff" fill-rule="evenodd" data-name="Path 254225"/><path d="m684.578 8051.056 2.133.64 2.133-.853c1.494-.64 126.505-53.972 280.101-46.079-45.439 4.052-104.531 14.933-168.744 41.384l-2.559 1.068-.853 2.56c-.214.426-.854 2.986-.854 6.4 0 2.774.427 6.186 2.347 9.387 1.707 2.986 5.12 6.826 12.16 8.746l2.134.64 1.92-.853c75.731-36.266 248.954-68.693 296.527-19.2l41.385 43.52s9.812 10.238 17.707 18.772c-38.4-1.493-80.212.214-125.012 5.546 4.48-9.386 7.894-18.345 9.174-26.238.427-2.774.64-5.12.64-7.468 0-13.652-6.187-21.332-11.733-25.6-17.067-12.799-49.92-9.598-92.159 9.174-15.786 7.04-32.638 16.214-49.918 27.093l-13.653 8.96-5.12 3.627-3.627 2.56-4.907 3.2c-.213.213-3.2 2.345-3.2 2.345l-9.173 6.827.64-.426-2.773 2.347.64-.64-12.586 9.812-1.707 1.281a455.029 455.029 0 0 0-15.573 13.013c-14.72 12.586-29.44 26.025-43.732 40.106-16.213 8.533-30.933 17.92-44.373 27.945-37.333 27.733-63.998 61.013-79.572 99.198-.213.213-2.559 6.4-2.559 6.4-.214.427-2.347 6.4-2.347 6.4-.213.426-.213.64-.213.64l-1.92 5.973c-3.414 12.16-5.974 24.746-7.254 37.12 0 .213-.426 5.76-.426 5.76 0 .426-.213 1.493-.213 1.493l-.214 4.266c0 .427-.214 5.547-.214 5.547v4.266c0 6.827.214 13.013.854 18.774 0 .639.213 2.56.213 2.56l.427 4.48c0 .213 3.2 17.92 3.2 17.92.213.426.213.639.213.639l2.347 8.532c0 .214.854 2.774 1.067 3.2v.215s.213.426.213.853c0 .213 0 .213.213.426-8.747 0-28.373 0-40.105-.213 6.186-7.04 10.879-17.28 10.879-29.013 0-5.12-.853-10.666-2.986-16.213-9.387-25.599-49.493-68.265-210.77-67.625-97.278.427-177.489 23.893-214.395 62.932-13.013 13.653-19.625 28.373-18.772 42.239 2.133 38.826 53.332 104.745 231.675 105.811 206.075 1.28 244.261-86.398 245.754-90.024l.854-2.348c14.293 31.574 55.039 70.187 115.624 87.039 51.625 14.294 132.904 16.64 227.408-52.692l4.48-3.413 3.2-2.347c17.493-12.8 34.346-24.533 50.132-35.199l11.094-7.467 3.84-2.347 6.826-4.265c.214-.214 10.24-6.402 10.24-6.402.213 0 10.026-5.973 10.026-5.973l3.628-1.919 5.758-3.2c.428-.214 9.174-5.12 9.174-5.12.214 0 8.96-4.693 8.96-4.693.427 0 7.254-3.413 7.254-3.413l1.066-.427c.213-.213 1.28-.64 1.28-.64l6.826-2.986.427-.214 4.906-2.133 2.347-.853c.213-.214 7.466-2.774 7.466-2.774.214-.213 2.774-.853 2.774-.853l4.48-1.493c.426-.214 2.346-.853 2.346-.853l4.694-1.282.64-.212 6.613-1.707c.426-.213 4.053-.853 4.053-.853l2.986-.64c.427 0 6.187-.853 6.187-.853l.64-.214 6.187-.64h.213c.213 0 6.4-.64 6.4-.64.64 0 6.4-.213 6.4-.213h6.612l7.467.427 1.707.213 3.413.426h.854l.64.213 3.84.428 2.345.213c.428 0 2.774.426 2.774.426s3.2.427 3.413.427l1.28.214.853.213 6.613 1.066c-.212 0 3.84.64 4.694.853.427.214 2.346.641 2.346.641l.854.212c.213 0 4.266.855 4.266.855-.212 0 6.187 1.28 6.187 1.28l20.267 4.48-17.067-17.067-.854-.64-.64-.64-2.773-2.56-1.492-1.28c.212.213-2.347-1.92-2.347-1.92l-.854-.64-1.066-.853c-.427-.214-5.333-3.84-5.333-3.84-.214 0-5.12-3.2-5.12-3.2l-.64-.427.426.427-1.92-1.067-.64-.426-4.48-2.347-1.92-.854c-.213-.213-3.84-1.705-5.12-2.132l-2.773-1.28c.214.213-7.253-2.774-7.253-2.774-.214-.213-7.894-2.56-7.894-2.56l-2.56-.64-6.185-1.493-.64-.213-2.774-.427h.853l-7.68-1.28-1.493-.214c-.427 0-10.88-1.28-10.88-1.28l1.067.214-1.92-.214c-.213 0-9.387-.64-9.387-.64h-11.733c.214 0-3.413.214-3.413.214.427 0-10.24.64-10.24.64h-.853c-.427 0-13.44 1.493-13.44 1.493-.426 0-2.133.428-2.133.428.213 0-11.093 1.919-11.093 1.919l-3.414.64c-.213 0-11.092 2.56-11.092 2.56l-1.494.214-2.133.426-14.293 4.053c-.214 0-16 5.12-16 5.12l1.92-.213-2.773.64-3.84 1.493-2.133.853-1.707.641-3.84 1.494c.213 0-12.373 4.906-12.373 4.906l-1.92.853-3.413 1.493c.213-.213-1.493.64-1.493.64l-6.613 2.773c-.214 0-1.067.427-1.067.427l-4.693 2.134-4.267 2.133-4.267 2.133c-.213.213-6.186 2.987-6.186 2.987.213-.214-8.533 4.267-8.533 4.267l-2.774 1.493-2.986 1.493-9.814 5.333c-.213.213-3.84 2.134-3.84 2.134l-1.279.64-15.36 8.96c-69.545 42.026-132.904 50.771-173.863 24.106-27.306-17.707-40.959-50.133-36.053-86.613 3.2-23.678 14.507-50.771 36.266-77.224 19.413-23.68 47.36-46.933 85.12-66.559 18.345-9.6 39.038-18.346 62.29-25.813l21.974-6.826 3.84-1.067c-.428.213 16.852-4.693 16.852-4.693l2.774-.64c.213 0 2.773-.64 2.773-.64l20.693-5.12c.214 0 2.987-.639 2.987-.639l1.493-.213c.213 0 12.586-2.774 12.586-2.774l3.84-.854 6.187-1.28 14.08-2.559 7.04-1.068 14.292-2.132 8.534-1.067 2.773-.213 6.4-.854c-.214 0 13.227-1.28 13.227-1.28.213 0 5.333-.64 5.333-.64-.427 0 17.066-1.066 17.066-1.066h2.774c.426 0 10.026-.427 10.026-.427l25.172-.213 22.827 1.067s.853 0 1.706.213c3.2 3.2 164.263 170.022 164.263 170.022l3.413-1.28 30.506-10.453-5.546-6.4c-46.08-52.264-88.531-100.051-127.357-142.716 1.493.213 4.48.854 4.48.854.213 0 26.239 7.039 26.239 7.039.427.213 23.253 8.106 23.253 8.106l-1.28-.64 2.133 1.067s19.414 8.533 19.626 8.533l.853.428c.214.212 17.28 9.173 17.28 9.173s.427.212.64.212l1.494.853 3.626 2.134-2.56-2.774 4.054 3.84-1.28-.853 8.32 5.547c.426.214 1.28.853 1.28.853l2.773 1.92 1.28.853-.854-.853 3.413 2.134-2.133-.853 6.4 5.331-.426-.426 1.492 1.281-.64-.427 3.414 3.412 5.333 5.548c.213.213 1.92 2.346 1.92 2.346.213.213 2.347 3.2 2.347 3.2l2.773 3.84 4.267-1.92 86.825-42.453-14.08-4.267c-10.027-3.2-62.505-18.56-112.638-18.132-7.68.213-14.293.64-20.693 1.28-.853-.64-2.987-2.133-2.987-2.133l-1.493-1.066c-11.52-8.108-44.798-27.52-106.664-37.973-47.36-51.626-85.545-91.306-110.718-115.198-38.612-36.48-286.074-53.972-448.204 7.466l-1.92.64-1.066 1.707c-.641 1.066-5.76 10.88-2.134 20.48 2.988 5.119 8.107 9.6 15.574 12.16Zm-392.525 368.846c14.933-26.88 58.879-42.453 120.744-43.306 126.29-1.28 183.463 36.906 193.062 63.998.64-1.066 5.974-9.813 3.2-21.12-3.413-13.866-21.119-30.719-21.119-30.719l10.453 8.533c1.707 1.707 22.4 15.573 18.986 36.054-2.347 14.292-16.852 21.972-16.852 21.972s-4.48-20.906-14.933-30.933c-23.894-22.399-81.706-42.666-172.797-41.598-59.305.639-101.331 15.36-115.197 40.106-.427.853-7.254 14.718-2.774 27.519 6.187 18.132 31.573 36.266 31.573 36.266s-26.666-14.08-36.053-32.64c-8.32-15.786-1.493-28.799 1.707-34.132Zm298.66 34.131v.64c-26.452 0-56.319-.212-56.319-.212l-1.707 2.56c-.212.426-27.305 39.68-122.664 37.545-65.917-1.706-105.17-29.652-104.957-55.89.213-23.042 33.706-46.72 108.158-47.575 90.025-.853 145.49 22.4 167.463 44.373 6.4 6.614 10.026 13.227 10.026 18.56Zm-180.69 91.092c-124.37-.64-176.422-35.2-196.262-55.892-8.106-8.319-12.8-17.28-16-26.239 4.694 7.466 11.307 15.36 20.267 21.546 27.092 27.093 84.264 52.479 191.995 53.12 151.891.853 207.57-48.427 221.01-63.573l13.225-7.253c-31.572 30.72-83.624 79.145-234.235 78.29Zm576.202-65.064 7.466-5.333 47.573-33.28c11.306-7.467 11.306-7.467 10.666-7.04l3.627-2.346s6.827-4.268 6.613-4.268c0 0 10.24-6.186 9.813-5.972 0 0 10.24-5.973 9.6-5.76 0 0 9.173-5.12 9.173-5.334l8.747-4.693s9.173-4.48 8.319-4.267c0 0 40.32-20.265 80.212-19.199-25.174 5.333-53.332 16.853-53.546 17.067l-2.346.853-12.16 5.12-1.706.853s-7.894 3.413-6.827 3.2l-8.32 4.266-8.533 4.693s-5.547 2.987-5.334 2.987c0 0-4.693 2.347-3.413 1.92 0 0-10.026 5.76-9.386 5.547 0 0-9.813 6.187-9.813 5.974l-6.4 4.053c-2.347 1.493-3.2 1.92-4.054 2.133h.64l-10.666 7.039-47.359 33.067s-7.254 5.333-7.467 5.333c-88.745 64.852-164.902 62.293-213.328 48.639-58.24-16.213-96.425-53.546-108.798-83.839 0 0-.854-1.919.213-4.266.64-1.493 2.133-1.92 2.133-1.92 2.347-.854 4.907.214 5.76 2.346 11.52 28.16 48 63.787 103.251 79.146 46.294 13.652 119.678 15.999 205.65-46.719Zm31.146-324.687-.854.427s-6.4 1.493-6.612 1.493l-1.707.213s-2.986.64-3.2.64l-20.907 5.12-7.253 1.92s-15.786 4.479-15.573 4.266c0 0-3.199.854-3.626 1.066l-22.187 6.829c-18.773 6.186-35.839 13.01-50.985 20.265-43.093 20.693-72.319 45.226-92.158 68.478-23.68 27.52-33.92 53.333-38.4 68.479-3.626 12.8-5.546 25.387-5.546 37.332 0 23.04 10.026 46.933 19.627 60.16 9.599 13.226 18.133 22.612 18.133 22.826 0 0-15.36-11.307-21.76-20.267-23.04-28.16-29.653-67.198-18.56-107.091 6.827-24.747 20.266-48.426 39.252-69.76 23.467-26.664 55.467-50.13 94.292-68.903 12.586-5.974 25.813-11.734 39.679-16.64 0 0 21.973-7.467 22.4-7.68 0 0 2.773-.853 2.987-1.066 0 0 18.773-5.76 20.052-6.187 0 0 3.2-1.067 4.694-1.28l18.986-5.333s3.627-.854 4.906-1.066c0 0 4.267-1.067 5.547-1.28l16.427-8.96c-3.2-.641-5.76-1.494-6.614-3.2-.427-.854-.64-1.707-.64-2.347 0-3.627 3.414-7.68 7.466-12.8 5.761-7.253 10.454-13.654 10.454-19.413 0-2.987-1.28-5.76-4.267-8.32l-.213-.213-1.28-7.254 2.56 1.92c.213.214 2.133 1.707 2.347 1.92 1.92 1.708 3.84 4.054 4.693 6.187 1.28 2.56 1.92 5.333 1.92 7.893 0 6.4-3.2 12.373-5.547 17.067-1.493 2.987-3.2 6.4-3.2 8.319 0 .427 0 .64.214.854.427.853 2.773 2.56 13.653 2.133l7.04-.214-26.24 23.467Zm142.29-15.147c-3.84.214-7.466.214-11.306.428-1.92.212-3.626.212-5.334.425-4.693.214-9.386.428-14.079.855-3.2.213-6.187.425-9.6.639l-8.96.64c-5.12.427-10.026.853-15.147 1.28-2.559.213-4.906.426-7.465.64-4.907.64-9.814 1.066-14.72 1.707-2.134.213-4.48.427-6.614.853-3.413.427-10.667 1.28-14.079 1.707l4.266-4.267c3.414-.427 6.613-.853 10.027-1.28 2.346-.213 4.48-.427 6.613-.853 4.907-.64 9.813-1.066 14.72-1.707 2.56-.214 4.906-.427 7.466-.64 5.12-.427 10.026-.853 15.147-1.28l8.96-.64 9.6-.64c4.693-.426 5.973 0 10.666-.213 1.707-.213 8.96 0 10.666-.213 3.84-.214 13.653 1.066 17.493 1.066l-8.32 1.493Zm226.77 61.226c1.066.64 1.92 1.28 2.132 1.28.427.213 1.067.639 1.067.639l.213.214 1.707 1.066.853.64s.427.214.64.426l.212.215 4.908 4.053.212.213.428.427 2.347 1.92c.213.213 3.626 3.626 4.266 4.053 3.84-1.92 10.24-5.333 18.56-9.6 3.626.853 7.253 1.706 10.453 2.56-12.586 5.76-22.613 10.453-27.946 12.799-.427-.64-3.84-4.265-4.054-4.265l-2.132-2.134s-.215-.213-.428-.427l-.213-.213-4.693-4.266s-.213-.214-.427-.214l-.64-.64-.854-.64-1.492-1.28-.214-.212s-.64-.428-1.066-.64c-.214-.213-5.547-4.053-5.76-4.267l-.213-.214-2.56-1.493s-.214-.213-.641-.428c1.707.215 3.414.428 5.334.428Zm-334.714-189.223c12.373 1.28 39.252 6.614 54.398 18.986 28.8 23.894 65.493 66.985 109.439 116.052 11.092 12.373 62.718 69.97 77.011 86.184-29.439-30.933-91.944-97.704-105.171-111.571l-60.8-63.145-10.665-10.24c-35.413-31.359-69.972-30.718-122.238-28.16.427-3.626 56.746-3.199 58.026-8.106Zm-373.965 25.813c2.56 0 15.146-4.906 23.679-8.32 11.306-4.48 98.77-34.346 191.57-33.493 26.025.214 51.838-.213 79.997 5.12-149.756-13.227-273.06 40.96-286.714 45.653-2.987-.64-9.813-6.4-8.532-8.96Z" fill="#fff" fill-rule="evenodd" data-name="Path 254226"/><path d="M1484.937 8405.18c-18.772 0-33.065 8.962-33.065 20.694s14.293 20.479 33.065 20.479l9.175-.852c14.505-2.56 23.891-10.455 23.891-19.84 0-9.388-9.599-17.28-23.891-19.84 0 .214-9.175-.64-9.175-.64Zm-13.226 31.786c.64.427 1.281.64 2.135.855 1.706 1.707 4.691 2.987 8.32 3.412-4.693-.214-8.534-1.92-10.455-4.267Zm34.773-16.852c1.495.853 2.987 1.707 4.055 2.56.425 1.067.852 2.134.852 3.2 0 6.187-7.467 11.307-17.918 13.012-2.348.427-4.909.642-7.895.642a33.1 33.1 0 0 1-6.613-.642c1.28.214 2.56.214 4.053.214 2.773 0 5.333-.427 7.893-.853 10.453-1.706 17.92-6.826 17.92-13.012-.214-1.707-1.068-3.628-2.347-5.121Z" fill="#fff" fill-rule="evenodd" data-name="Path 254227"/><path d="M1268.49 8472.168c6.825 48 63.147 81.491 136.957 81.491 100.051 0 152.317-29.438 198.183-55.25 39.252-22.187 73.17-41.173 129.065-36.906l27.305 1.067-24.533-11.948c-75.945-32.64-134.61-7.252-194.342 20.907-33.706 15.999-67.412 27.306-92.159 23.04-35.412-5.974-60.157-26.24-60.157-49.28.211-23.04 26.664-51.625 100.478-63.358 122.661-19.414 181.329 26.026 203.513 43.092l13.653 10.026 2.347-7.466c4.48-12.373-.641-27.093-14.29-41.812-38.829-41.173-150.398-82.772-277.331-46.293-100.905 29.013-156.37 78.719-148.69 132.69Zm331.727 21.12c19.626-10.88 38.399-21.12 59.305-28.16l-59.305 28.16Zm-188.583 43.305c150.397 0 177.49-75.305 267.086-78.292-81.276 14.507-120.745 86.613-271.354 86.613-62.719 0-111.57-19.413-126.29-64.426 13.226 33.92 67.84 56.105 130.558 56.105Zm277.539-127.142c-3.413-4.054-9.171-13.867-24.106-24.107l-2.346-3.627c6.187 3.198 20.267 12.8 26.242 19.839 8.744 10.24 11.731 21.12 11.731 21.12l-9.385-6.4c-54.614-38.185-126.08-51.413-206.93-38.612-61.653 9.814-103.678 35.2-112.425 68.265-4.692 17.92 1.282 35.412 16 47.147-16.426-13.014-29.012-29.654-23.893-49.493 4.48-16.641 22.186-59.306 113.919-73.811 78.719-12.374 156.584 4.265 211.193 39.679Z" fill="#fff" fill-rule="evenodd" data-name="Path 254228"/></g></svg>