<svg xmlns="http://www.w3.org/2000/svg" width="30" height="30" viewBox="867 1977 30 30"><path d="M897 1992c0 8.286-6.714 15-15 15a14.94 14.94 0 0 1-4.44-.671c.611-.998 1.525-2.631 1.863-3.932.182-.701.932-3.568.932-3.568.49.931 1.917 1.723 3.435 1.723 4.525 0 7.785-4.16 7.785-9.332 0-4.954-4.047-8.662-9.248-8.662-6.472 0-9.914 4.343-9.914 9.08 0 2.2 1.174 4.94 3.043 5.812.284.133.435.072.502-.2.048-.206.302-1.228.417-1.7a.45.45 0 0 0-.103-.429c-.61-.756-1.107-2.135-1.107-3.423 0-3.309 2.504-6.508 6.775-6.508 3.683 0 6.266 2.51 6.266 6.102 0 4.059-2.05 6.871-4.718 6.871-1.47 0-2.577-1.215-2.22-2.71.424-1.784 1.24-3.707 1.24-4.995 0-1.15-.617-2.111-1.9-2.111-1.505 0-2.715 1.554-2.715 3.64 0 1.332.448 2.227.448 2.227s-1.482 6.278-1.754 7.451c-.303 1.295-.182 3.121-.055 4.307-5.576-2.184-9.532-7.615-9.532-13.972 0-8.286 6.714-15 15-15s15 6.714 15 15Z" fill="#cb2027" fill-rule="evenodd" data-name="Icon awesome-pinterest"/></svg>