<svg width="76" height="15" viewBox="0 0 76 15" fill="none" xmlns="http://www.w3.org/2000/svg">
<path d="M8.18853 10.2121L7.97921 10.0858L7.76988 10.2121L4.8941 11.9478L5.65726 8.67647L5.71281 8.43836L5.52801 8.27826L2.98678 6.07679L6.33213 5.79297L6.57554 5.77232L6.67086 5.54741L7.97921 2.46046L9.28755 5.54741L9.38288 5.77232L9.62629 5.79297L12.9716 6.07679L10.4304 8.27826L10.2456 8.43836L10.3012 8.67647L11.0643 11.9478L8.18853 10.2121Z" stroke="#FFB800" stroke-width="0.810187"/>
<path d="M23.3588 10.2121L23.1495 10.0858L22.9402 10.2121L20.0644 11.9478L20.8276 8.67647L20.8831 8.43836L20.6983 8.27826L18.1571 6.07679L21.5024 5.79297L21.7458 5.77232L21.8411 5.54741L23.1495 2.46046L24.4578 5.54741L24.5532 5.77232L24.7966 5.79297L28.1419 6.07679L25.6007 8.27826L25.4159 8.43836L25.4714 8.67647L26.2346 11.9478L23.3588 10.2121Z" stroke="#FFB800" stroke-width="0.810187"/>
<path d="M38.529 10.2121L38.3197 10.0858L38.1103 10.2121L35.2346 11.9478L35.9977 8.67647L36.0533 8.43836L35.8685 8.27826L33.3272 6.07679L36.6726 5.79297L36.916 5.77232L37.0113 5.54741L38.3197 2.46046L39.628 5.54741L39.7233 5.77232L39.9667 5.79297L43.3121 6.07679L40.7709 8.27826L40.5861 8.43836L40.6416 8.67647L41.4048 11.9478L38.529 10.2121Z" stroke="#FFB800" stroke-width="0.810187"/>
<path d="M53.6993 10.2121L53.4899 10.0858L53.2806 10.2121L50.4048 11.9478L51.168 8.67647L51.2236 8.43836L51.0387 8.27826L48.4975 6.07679L51.8429 5.79297L52.0863 5.77232L52.1816 5.54741L53.4899 2.46046L54.7983 5.54741L54.8936 5.77232L55.137 5.79297L58.4824 6.07679L55.9412 8.27826L55.7563 8.43836L55.8119 8.67647L56.5751 11.9478L53.6993 10.2121Z" stroke="#FFB800" stroke-width="0.810187"/>
<path d="M68.8696 10.2121L68.6602 10.0858L68.4509 10.2121L65.5751 11.9478L66.3383 8.67647L66.3938 8.43836L66.209 8.27826L63.6678 6.07679L67.0132 5.79297L67.2566 5.77232L67.3519 5.54741L68.6602 2.46046L69.9686 5.54741L70.0639 5.77232L70.3073 5.79297L73.6527 6.07679L71.1114 8.27826L70.9266 8.43836L70.9822 8.67647L71.7453 11.9478L68.8696 10.2121Z" stroke="#FFB800" stroke-width="0.810187"/>
</svg>
