<svg xmlns="http://www.w3.org/2000/svg" width="30" height="30" viewBox="744 1977 30 30"><g data-name="Group 91855"><path d="M15 0a15 15 0 0 1 15 15 15 15 0 0 1-15 15A15 15 0 0 1 0 15 15 15 0 0 1 15 0z" fill-rule="evenodd" fill="url(&quot;#a&quot;)" transform="translate(744 1977)" data-name="Rectangle 13057"/><g data-name="Group 91851"><path d="M751 1984h16v16h-16v-16z" fill="rgba(255,158,158,0 )" fill-rule="evenodd" data-name="Rectangle 13034"/><g data-name="001-twitter-logo-silhouette"><g data-name="Group 25"><path d="M767 1987.472c-.589.25-1.22.42-1.885.495a3.184 3.184 0 0 0 1.443-1.737 6.798 6.798 0 0 1-2.086.763 3.342 3.342 0 0 0-2.395-.993c-1.813 0-3.283 1.407-3.283 3.142 0 .246.03.486.085.716-2.727-.131-5.146-1.382-6.764-3.284a3.018 3.018 0 0 0-.444 1.58c0 1.09.58 2.053 1.46 2.615a3.394 3.394 0 0 1-1.487-.394v.04c0 1.521 1.132 2.792 2.632 3.08-.275.072-.565.111-.864.111-.212 0-.417-.02-.618-.058.418 1.249 1.63 2.157 3.065 2.182a6.773 6.773 0 0 1-4.076 1.344c-.265 0-.526-.016-.783-.044a9.579 9.579 0 0 0 5.031 1.414c6.038 0 9.338-4.788 9.338-8.941l-.01-.407a6.409 6.409 0 0 0 1.641-1.624Z" fill="#fff" fill-rule="evenodd" data-name="Path 69"/></g></g></g></g><defs><linearGradient x1="0" y1=".043" x2=".93" y2=".968" id="a"><stop stop-color="#00acee" offset="0"/><stop stop-color="#0087bb" offset="1"/></linearGradient></defs></svg>